<svg xmlns="http://www.w3.org/2000/svg" xmlns:xlink="http://www.w3.org/1999/xlink" width="2000" zoomAndPan="magnify" viewBox="0 0 1500 1499.999933" height="2000" preserveAspectRatio="xMidYMid meet" version="1.0"><defs><g/><clipPath id="58d5c64091"><rect x="0" width="721" y="0" height="1029"/></clipPath><clipPath id="b46321f902"><rect x="0" width="698" y="0" height="1029"/></clipPath></defs><rect x="-150" width="1800" fill="#ffffff" y="-149.999993" height="1799.99992" fill-opacity="1"/><rect x="-150" width="1800" fill="#865b64" y="-149.999993" height="1799.99992" fill-opacity="1"/><g transform="matrix(1, 0, 0, 1, 150, 268)"><g clip-path="url(#58d5c64091)"><g fill="#4a1c26" fill-opacity="1"><g transform="translate(0.00002043, 770.173818)"><g><path d="M 257.765625 -597.484375 C 242.398438 -581.546875 230.734375 -566.179688 222.765625 -551.390625 C 214.804688 -536.597656 209.40625 -519.671875 206.5625 -500.609375 C 203.71875 -481.546875 202.296875 -456.929688 202.296875 -426.765625 L 202.296875 -170.703125 C 202.296875 -140.546875 203.71875 -115.9375 206.5625 -96.875 C 209.40625 -77.8125 214.804688 -61.023438 222.765625 -46.515625 C 230.734375 -32.003906 242.398438 -16.5 257.765625 0 L 35.84375 0 C 51.78125 -16.5 63.585938 -32.003906 71.265625 -46.515625 C 78.953125 -61.023438 84.21875 -77.8125 87.0625 -96.875 C 89.90625 -115.9375 91.328125 -140.546875 91.328125 -170.703125 L 91.328125 -426.765625 C 91.328125 -456.929688 89.90625 -481.546875 87.0625 -500.609375 C 84.21875 -519.671875 78.953125 -536.597656 71.265625 -551.390625 C 63.585938 -566.179688 51.78125 -581.546875 35.84375 -597.484375 Z M 546.265625 -162.171875 C 562.765625 -137.140625 578.128906 -113.238281 592.359375 -90.46875 C 606.585938 -67.707031 623.515625 -48.359375 643.140625 -32.421875 C 662.773438 -16.492188 687.957031 -5.6875 718.6875 0 C 664.625 0 618.957031 -4.125 581.6875 -12.375 C 544.414062 -20.625 513.546875 -31.71875 489.078125 -45.65625 C 464.609375 -59.601562 444.550781 -75.253906 428.90625 -92.609375 C 413.257812 -109.960938 400.171875 -128.03125 389.640625 -146.8125 C 379.117188 -165.59375 369.585938 -183.941406 361.046875 -201.859375 C 352.515625 -219.785156 342.984375 -236.003906 332.453125 -250.515625 C 321.929688 -265.023438 308.414062 -276.546875 291.90625 -285.078125 C 330.601562 -314.671875 360.191406 -343.832031 380.671875 -372.5625 C 401.160156 -401.300781 414.25 -436.15625 419.9375 -477.125 C 422.21875 -493.0625 422.363281 -509.28125 420.375 -525.78125 C 418.382812 -542.28125 411.554688 -556.929688 399.890625 -569.734375 C 388.222656 -582.546875 369.300781 -591.796875 343.125 -597.484375 L 676.015625 -597.484375 C 657.234375 -591.796875 640.726562 -584.539062 626.5 -575.71875 C 612.28125 -566.894531 598.765625 -554.234375 585.953125 -537.734375 C 573.148438 -521.234375 559.066406 -498.472656 543.703125 -469.453125 C 532.890625 -448.398438 522.503906 -428.054688 512.546875 -408.421875 C 502.597656 -388.785156 491.363281 -370.71875 478.84375 -354.21875 C 466.320312 -337.71875 450.957031 -323.492188 432.75 -311.546875 C 414.539062 -299.597656 391.78125 -290.773438 364.46875 -285.078125 C 392.34375 -278.253906 416.378906 -270.859375 436.578125 -262.890625 C 456.785156 -254.921875 475.566406 -243.394531 492.921875 -228.3125 C 510.273438 -213.238281 528.054688 -191.191406 546.265625 -162.171875 Z M 546.265625 -162.171875 "/></g></g></g></g></g><g transform="matrix(1, 0, 0, 1, 675, 268)"><g clip-path="url(#b46321f902)"><g fill="#d8a7b1" fill-opacity="1"><g transform="translate(0.560303, 770.173818)"><g><path d="M 38.40625 -298.734375 C 38.40625 -349.953125 46.226562 -394.335938 61.875 -431.890625 C 77.53125 -469.453125 98.867188 -500.46875 125.890625 -524.9375 C 152.921875 -549.40625 183.929688 -567.613281 218.921875 -579.5625 C 253.921875 -591.507812 290.769531 -597.484375 329.46875 -597.484375 C 281.101562 -570.734375 243.265625 -532.175781 215.953125 -481.8125 C 188.640625 -431.457031 174.984375 -370.429688 174.984375 -298.734375 C 174.984375 -227.035156 188.640625 -166.003906 215.953125 -115.640625 C 243.265625 -65.285156 281.101562 -26.738281 329.46875 0 C 290.769531 0 253.921875 -5.972656 218.921875 -17.921875 C 183.929688 -29.867188 152.921875 -48.078125 125.890625 -72.546875 C 98.867188 -97.015625 77.53125 -128.023438 61.875 -165.578125 C 46.226562 -203.140625 38.40625 -247.523438 38.40625 -298.734375 Z M 585.53125 -426.765625 C 573.007812 -474.003906 553.234375 -511.132812 526.203125 -538.15625 C 499.179688 -565.1875 462.054688 -584.960938 414.828125 -597.484375 L 585.53125 -597.484375 Z M 619.671875 -170.703125 C 610.566406 -113.804688 590.222656 -71.128906 558.640625 -42.671875 C 527.066406 -14.222656 479.128906 0 414.828125 0 C 446.117188 -19.914062 471.007812 -42.25 489.5 -67 C 508 -91.75 517.25 -120.628906 517.25 -153.640625 C 517.25 -175.265625 514.546875 -194.609375 509.140625 -211.671875 C 503.734375 -228.742188 493.628906 -244.960938 478.828125 -260.328125 C 464.035156 -275.691406 442.703125 -291.34375 414.828125 -307.28125 L 679.421875 -307.28125 C 658.367188 -287.363281 644.285156 -266.734375 637.171875 -245.390625 C 630.054688 -224.054688 624.222656 -199.160156 619.671875 -170.703125 Z M 619.671875 -170.703125 "/></g></g></g></g></g></svg>