<svg xmlns="http://www.w3.org/2000/svg" viewBox="0 0 44 44" width="44" height="44">
  <circle cx="22" cy="22" r="22" fill="#e4b363"/>
  <path transform="translate(10 10)" fill="#14524b" d="M20.45 20.45h-3.56v-5.57c0-1.33-.02-3.04-1.85-3.04-1.85 0-2.13 1.45-2.13 2.94v5.67H9.35V9h3.41v1.56h.05c.48-.9 1.63-1.85 3.36-1.85 3.6 0 4.27 2.37 4.27 5.45v6.29zM5.34 7.43a2.06 2.06 0 0 1-2.07-2.07c0-1.14.93-2.07 2.07-2.07 1.14 0 2.07.93 2.07 2.07 0 1.14-.93 2.07-2.07 2.07zm1.78 13.02H3.55V9h3.57v11.45zM22.22 0H1.77C.8 0 0 .78 0 1.75v20.5C0 23.22.8 24 1.77 24h20.45c.98 0 1.78-.78 1.78-1.75V1.75C24 .78 23.2 0 22.22 0z"/>
</svg>
